<?xml version="1.0" encoding="utf-8"?>
<!-- Generator: Adobe Illustrator 16.0.0, SVG Export Plug-In . SVG Version: 6.00 Build 0)  -->
<!DOCTYPE svg PUBLIC "-//W3C//DTD SVG 1.1//EN" "http://www.w3.org/Graphics/SVG/1.1/DTD/svg11.dtd">
<svg version="1.1" id="Layer_1" xmlns="http://www.w3.org/2000/svg" xmlns:xlink="http://www.w3.org/1999/xlink" x="0px" y="0px"
	 width="1281.07px" height="924.23px" viewBox="0 0 1281.07 924.23" enable-background="new 0 0 1281.07 924.23"
	 xml:space="preserve">
<linearGradient id="SVGID_1_" gradientUnits="userSpaceOnUse" x1="267.6675" y1="149.9272" x2="1233.6675" y2="861.9272">
	<stop  offset="0" style="stop-color:#FFFFFF"/>
	<stop  offset="1" style="stop-color:#E6E7E8"/>
</linearGradient>
<rect fill="url(#SVGID_1_)" width="1281.07" height="849.505"/>
<g>
	<rect x="0" y="849.505" fill="#231F20" width="1281.07" height="74.725"/>
	<g>
		<g>
			<path fill="#FFFFFF" d="M511.407,878.626h2.871c2.258,0,4.119,0.594,5.581,1.783c1.472,1.177,2.207,2.87,2.207,5.079
				c0,2.274-0.727,4.009-2.191,5.21c-1.456,1.205-3.341,1.806-5.649,1.806h-2.818V878.626z M513.139,890.926h0.604
				c0.9,0,1.746-0.093,2.546-0.273c0.793-0.176,1.494-0.48,2.088-0.903c0.597-0.421,1.073-0.975,1.425-1.653
				c0.358-0.684,0.535-1.528,0.535-2.534c0-0.99-0.176-1.836-0.525-2.55c-0.348-0.703-0.837-1.253-1.464-1.65
				c-0.626-0.398-1.315-0.694-2.073-0.882c-0.754-0.181-1.593-0.28-2.532-0.28h-0.604V890.926z"/>
			<path fill="#FFFFFF" d="M524.606,888.472c0.023,0.769,0.272,1.441,0.737,2.01c0.48,0.563,1.096,0.842,1.858,0.842
				c0.604,0,1.097-0.132,1.485-0.41c0.386-0.277,0.754-0.699,1.096-1.264l1.398,0.794c-0.404,0.737-0.958,1.312-1.666,1.729
				c-0.703,0.414-1.483,0.63-2.33,0.63c-1.287,0-2.32-0.433-3.091-1.29c-0.764-0.875-1.143-1.95-1.143-3.24
				c0-1.356,0.36-2.482,1.085-3.357c0.712-0.857,1.747-1.286,3.112-1.286c1.325,0,2.324,0.429,3.002,1.286
				c0.686,0.859,1.029,1.957,1.029,3.302v0.255H524.606z M529.526,887.22c-0.101-0.663-0.348-1.192-0.764-1.573
				c-0.415-0.384-0.949-0.589-1.612-0.589c-0.319,0-0.617,0.057-0.892,0.164c-0.279,0.101-0.521,0.257-0.742,0.446
				c-0.208,0.202-0.387,0.438-0.529,0.697c-0.143,0.263-0.236,0.554-0.284,0.854H529.526z"/>
			<path fill="#FFFFFF" d="M536.061,885.865c-0.25-0.509-0.614-0.757-1.102-0.757c-0.231,0-0.443,0.077-0.629,0.245
				c-0.186,0.163-0.274,0.371-0.274,0.6c0,0.223,0.07,0.407,0.211,0.556c0.142,0.156,0.333,0.302,0.576,0.439
				c0.163,0.07,0.285,0.132,0.372,0.169c0.083,0.045,0.227,0.109,0.424,0.195c0.098,0.046,0.186,0.092,0.26,0.111
				c0.069,0.026,0.125,0.042,0.162,0.074c0.613,0.279,1.099,0.61,1.455,0.975c0.357,0.371,0.533,0.859,0.533,1.478
				c0,0.812-0.293,1.49-0.883,2.039c-0.576,0.546-1.267,0.814-2.083,0.814c-0.329,0-0.65-0.048-0.954-0.141
				c-0.31-0.091-0.597-0.221-0.858-0.389c-0.265-0.171-0.494-0.365-0.703-0.605c-0.201-0.24-0.359-0.509-0.463-0.807l1.417-0.638
				c0.399,0.734,0.924,1.1,1.56,1.1c0.261,0,0.5-0.067,0.722-0.205c0.219-0.142,0.38-0.322,0.487-0.541
				c0.104-0.214,0.125-0.442,0.064-0.694c-0.061-0.254-0.254-0.496-0.572-0.712l-1.622-0.866c-0.284-0.146-0.524-0.286-0.735-0.437
				c-0.208-0.153-0.382-0.312-0.515-0.475c-0.135-0.168-0.237-0.35-0.302-0.552c-0.066-0.2-0.103-0.437-0.103-0.712
				c0-0.698,0.243-1.28,0.739-1.765c0.487-0.493,1.091-0.736,1.803-0.736c1.078,0,1.865,0.506,2.357,1.511L536.061,885.865z"/>
			<path fill="#FFFFFF" d="M542.009,879.947c0,0.311-0.11,0.57-0.333,0.798c-0.221,0.219-0.491,0.317-0.811,0.317
				c-0.321,0-0.587-0.099-0.809-0.317c-0.22-0.228-0.332-0.487-0.332-0.798c0-0.318,0.111-0.588,0.332-0.824
				c0.222-0.229,0.488-0.332,0.809-0.332c0.319,0,0.59,0.104,0.811,0.332C541.899,879.359,542.009,879.628,542.009,879.947z
				 M541.691,892.504h-1.659v-8.619h1.659V892.504z"/>
			<path fill="#FFFFFF" d="M552.414,892.343c0,1.618-0.312,2.87-0.924,3.769c-0.609,0.888-1.708,1.327-3.276,1.327
				c-1.213,0-2.21-0.35-2.982-1.052c-0.761-0.698-1.159-1.647-1.179-2.85h1.653c0,0.77,0.243,1.364,0.712,1.793
				c0.47,0.428,1.094,0.636,1.872,0.636c0.943,0,1.59-0.277,1.941-0.828c0.347-0.556,0.522-1.336,0.522-2.335v-1.644h-0.034
				c-0.346,0.518-0.77,0.92-1.28,1.206c-0.51,0.293-1.062,0.438-1.648,0.438c-1.279,0-2.284-0.449-3.022-1.346
				c-0.734-0.9-1.103-2.006-1.103-3.315c0-1.245,0.373-2.3,1.121-3.17c0.753-0.893,1.725-1.343,2.928-1.343
				c1.267,0,2.267,0.581,3.004,1.733h0.034v-1.478h1.661V892.343z M548.047,891.324c0.871,0,1.552-0.295,2.042-0.902
				c0.505-0.607,0.755-1.355,0.755-2.227c0-0.854-0.25-1.59-0.755-2.192c-0.49-0.598-1.171-0.895-2.042-0.895
				c-0.822,0-1.483,0.298-1.99,0.917c-0.487,0.603-0.736,1.321-0.736,2.17c0,0.871,0.249,1.615,0.736,2.209
				C546.563,891.019,547.225,891.324,548.047,891.324z"/>
			<path fill="#FFFFFF" d="M556.227,885.044h0.029c0.249-0.45,0.608-0.805,1.073-1.045c0.462-0.247,0.976-0.37,1.526-0.37
				c0.564,0,1.042,0.089,1.437,0.256c0.395,0.173,0.708,0.42,0.95,0.739c0.238,0.319,0.41,0.712,0.511,1.166
				c0.109,0.465,0.157,0.986,0.157,1.578v5.136h-1.652v-4.932c0-0.853-0.126-1.467-0.371-1.862
				c-0.246-0.406-0.754-0.603-1.526-0.603c-0.287,0-0.523,0.023-0.722,0.077c-0.197,0.057-0.365,0.138-0.513,0.237
				c-0.148,0.107-0.269,0.233-0.371,0.359c-0.094,0.134-0.189,0.284-0.271,0.446c-0.038,0.082-0.076,0.192-0.104,0.329
				c-0.031,0.13-0.056,0.272-0.082,0.418c-0.024,0.139-0.048,0.276-0.059,0.419c-0.009,0.146-0.013,0.253-0.013,0.341v0.813v3.956
				h-1.661v-8.619h1.661V885.044z"/>
			<path fill="#FFFFFF" d="M569.388,876.522h1.657v8.801h0.035c0.764-1.127,1.762-1.693,3.004-1.693c1.205,0,2.177,0.45,2.929,1.343
				c0.748,0.87,1.123,1.925,1.123,3.17c0,1.31-0.375,2.415-1.106,3.315c-0.741,0.896-1.741,1.346-3.018,1.346
				c-0.588,0-1.14-0.145-1.652-0.438c-0.508-0.286-0.935-0.688-1.28-1.206h-0.035v1.345h-1.657V876.522z M573.675,891.324
				c0.877,0,1.556-0.295,2.05-0.902c0.503-0.607,0.75-1.355,0.75-2.227c0-0.854-0.247-1.59-0.75-2.192
				c-0.494-0.598-1.173-0.895-2.05-0.895c-0.823,0-1.483,0.298-1.987,0.917c-0.492,0.603-0.734,1.321-0.734,2.17
				c0,0.871,0.243,1.615,0.734,2.209C572.191,891.019,572.852,891.324,573.675,891.324z"/>
			<path fill="#FFFFFF" d="M578.374,883.885h1.933l2.908,5.474l2.705-5.474h1.864l-6.979,13.554h-1.88l3.389-6.41L578.374,883.885z"
				/>
			<path fill="#FFFFFF" d="M596.142,889.021l-1.584,3.483h-1.861l6.631-14.472l6.624,14.472h-1.856l-1.579-3.483H596.142z
				 M599.327,881.829l-2.473,5.613h4.938L599.327,881.829z"/>
			<path fill="#FFFFFF" d="M608.662,892.504h-1.655v-15.982h1.655V892.504z"/>
			<path fill="#FFFFFF" d="M612.75,892.504h-1.658v-15.982h1.658V892.504z"/>
			<path fill="#FFFFFF" d="M619.045,885.916v1.379h-4.032v-1.379H619.045z"/>
			<path fill="#FFFFFF" d="M625.484,878.201c-0.512-0.234-0.878-0.351-1.099-0.351c-0.36,0-0.614,0.108-0.771,0.338
				c-0.162,0.226-0.272,0.503-0.334,0.839c-0.036,0.243-0.055,0.438-0.069,0.58c-0.002,0.145-0.002,0.335-0.002,0.585v3.693h2.275
				v1.547h-2.275v7.072h-1.663v-7.072h-0.751v-1.547h0.751v-4.192c0-2.26,0.929-3.395,2.787-3.395c0.404,0,0.789,0.081,1.151,0.224
				V878.201z"/>
			<path fill="#FFFFFF" d="M628.045,885.284h0.056c0.21-0.511,0.511-0.918,0.923-1.211c0.409-0.294,0.886-0.443,1.437-0.443
				c0.459,0,0.906,0.141,1.369,0.426l-0.758,1.507c-0.271-0.239-0.611-0.348-1.013-0.348c-0.854,0-1.414,0.346-1.697,1.031
				c-0.123,0.319-0.209,0.636-0.249,0.947c-0.039,0.309-0.067,0.676-0.067,1.08v4.231h-1.65v-8.619h1.65V885.284z"/>
			<path fill="#FFFFFF" d="M633.742,888.472c0.02,0.769,0.269,1.441,0.738,2.01c0.476,0.563,1.091,0.842,1.855,0.842
				c0.594,0,1.098-0.132,1.482-0.41c0.386-0.277,0.753-0.699,1.092-1.264l1.398,0.794c-0.4,0.737-0.955,1.312-1.661,1.729
				c-0.706,0.414-1.485,0.63-2.331,0.63c-1.284,0-2.319-0.433-3.087-1.29c-0.764-0.875-1.145-1.95-1.145-3.24
				c0-1.356,0.362-2.482,1.083-3.357c0.712-0.857,1.747-1.286,3.111-1.286c1.326,0,2.329,0.429,3.008,1.286
				c0.681,0.859,1.021,1.957,1.021,3.302v0.255H633.742z M638.657,887.22c-0.101-0.663-0.354-1.192-0.764-1.573
				c-0.411-0.384-0.946-0.589-1.614-0.589c-0.32,0-0.614,0.057-0.893,0.164c-0.272,0.101-0.522,0.257-0.731,0.446
				c-0.219,0.202-0.396,0.438-0.543,0.697c-0.137,0.263-0.231,0.554-0.277,0.854H638.657z"/>
			<path fill="#FFFFFF" d="M642.732,888.472c0.021,0.769,0.265,1.441,0.73,2.01c0.475,0.563,1.1,0.842,1.858,0.842
				c0.603,0,1.1-0.132,1.481-0.41c0.389-0.277,0.75-0.699,1.099-1.264l1.395,0.794c-0.396,0.737-0.949,1.312-1.662,1.729
				c-0.71,0.414-1.482,0.63-2.331,0.63c-1.293,0-2.319-0.433-3.098-1.29c-0.756-0.875-1.135-1.95-1.135-3.24
				c0-1.356,0.357-2.482,1.089-3.357c0.707-0.857,1.748-1.286,3.11-1.286c1.318,0,2.323,0.429,2.994,1.286
				c0.694,0.859,1.032,1.957,1.032,3.302v0.255H642.732z M647.644,887.22c-0.096-0.663-0.356-1.192-0.771-1.573
				c-0.408-0.384-0.941-0.589-1.604-0.589c-0.325,0-0.618,0.057-0.897,0.164c-0.275,0.101-0.518,0.257-0.732,0.446
				c-0.218,0.202-0.399,0.438-0.533,0.697c-0.144,0.263-0.24,0.554-0.29,0.854H647.644z"/>
			<path fill="#FFFFFF" d="M654.659,885.916v1.379h-4.037v-1.379H654.659z"/>
			<path fill="#FFFFFF" d="M663.254,891.16h-0.038c-0.342,0.518-0.77,0.92-1.278,1.206c-0.511,0.293-1.063,0.438-1.646,0.438
				c-1.278,0-2.284-0.449-3.018-1.346c-0.738-0.9-1.113-2.006-1.113-3.315c0-1.245,0.377-2.3,1.129-3.17
				c0.75-0.893,1.724-1.343,2.926-1.343c1.24,0,2.24,0.566,3.001,1.693h0.038v-8.801h1.654v15.982h-1.654V891.16z M660.548,891.324
				c0.868,0,1.557-0.295,2.041-0.902c0.503-0.607,0.761-1.355,0.761-2.227c0-0.854-0.258-1.59-0.761-2.192
				c-0.484-0.598-1.173-0.895-2.041-0.895c-0.824,0-1.487,0.298-1.987,0.917c-0.492,0.603-0.738,1.321-0.738,2.17
				c0,0.871,0.246,1.615,0.738,2.209C659.061,891.019,659.724,891.324,660.548,891.324z"/>
			<path fill="#FFFFFF" d="M667.618,884.955c0.898-0.882,1.992-1.325,3.284-1.325c1.285,0,2.37,0.443,3.247,1.325
				c0.901,0.879,1.347,1.979,1.347,3.263c0,1.284-0.445,2.37-1.347,3.265c-0.877,0.878-1.962,1.321-3.247,1.321
				c-1.292,0-2.386-0.443-3.284-1.321c-0.884-0.895-1.327-1.98-1.327-3.265C666.291,886.934,666.734,885.833,667.618,884.955z
				 M667.948,888.217c0,0.793,0.297,1.5,0.873,2.108c0.562,0.601,1.261,0.891,2.081,0.891c0.803,0,1.502-0.29,2.074-0.891
				c0.579-0.608,0.864-1.315,0.864-2.108c0-0.812-0.285-1.523-0.864-2.119c-0.572-0.591-1.271-0.884-2.074-0.884
				c-0.82,0-1.52,0.293-2.081,0.884C668.245,886.694,667.948,887.406,667.948,888.217z"/>
			<path fill="#FFFFFF" d="M679.959,889.379l2.532-5.969l2.526,5.969l2.509-5.494h1.872l-4.381,8.918l-2.526-5.763l-2.532,5.763
				l-4.385-8.918h1.877L679.959,889.379z"/>
			<path fill="#FFFFFF" d="M691.89,885.044h0.035c0.243-0.45,0.599-0.805,1.065-1.045c0.469-0.247,0.978-0.37,1.526-0.37
				c0.567,0,1.052,0.089,1.44,0.256c0.392,0.173,0.706,0.42,0.949,0.739c0.238,0.319,0.408,0.712,0.507,1.166
				c0.107,0.465,0.159,0.986,0.159,1.578v5.136h-1.655v-4.932c0-0.853-0.113-1.467-0.366-1.862
				c-0.247-0.406-0.752-0.603-1.534-0.603c-0.276,0-0.516,0.023-0.715,0.077c-0.191,0.057-0.366,0.138-0.516,0.237
				c-0.146,0.107-0.27,0.233-0.366,0.359c-0.103,0.134-0.192,0.284-0.273,0.446c-0.036,0.082-0.073,0.192-0.104,0.329
				c-0.033,0.13-0.063,0.272-0.083,0.418c-0.026,0.139-0.038,0.276-0.06,0.419c-0.004,0.146-0.011,0.253-0.011,0.341v0.813v3.956
				h-1.658v-8.619h1.658V885.044z"/>
			<path fill="#FFFFFF" d="M701.59,892.504h-1.658v-15.982h1.658V892.504z"/>
			<path fill="#FFFFFF" d="M704.5,884.955c0.888-0.882,1.987-1.325,3.28-1.325c1.287,0,2.368,0.443,3.261,1.325
				c0.893,0.879,1.335,1.979,1.335,3.263c0,1.284-0.442,2.37-1.335,3.265c-0.893,0.878-1.974,1.321-3.261,1.321
				c-1.293,0-2.393-0.443-3.28-1.321c-0.89-0.895-1.328-1.98-1.328-3.265C703.171,886.934,703.61,885.833,704.5,884.955z
				 M704.833,888.217c0,0.793,0.288,1.5,0.862,2.108c0.565,0.601,1.261,0.891,2.085,0.891c0.805,0,1.5-0.29,2.083-0.891
				c0.57-0.608,0.859-1.315,0.859-2.108c0-0.812-0.289-1.523-0.859-2.119c-0.583-0.591-1.278-0.884-2.083-0.884
				c-0.824,0-1.52,0.293-2.085,0.884C705.121,886.694,704.833,887.406,704.833,888.217z"/>
			<path fill="#FFFFFF" d="M721.975,892.504h-1.66v-1.345h-0.034c-0.737,1.09-1.716,1.644-2.932,1.644
				c-1.264,0-2.271-0.449-3.02-1.346c-0.735-0.9-1.104-2.006-1.104-3.315c0-1.245,0.371-2.3,1.123-3.17
				c0.748-0.893,1.732-1.343,2.942-1.343c1.232,0,2.228,0.566,2.989,1.693h0.034v-1.438h1.66V892.504z M717.608,891.324
				c0.879,0,1.55-0.295,2.045-0.902c0.502-0.607,0.753-1.355,0.753-2.227c0-0.854-0.251-1.59-0.753-2.192
				c-0.495-0.598-1.166-0.895-2.045-0.895c-0.82,0-1.485,0.298-1.984,0.917c-0.492,0.603-0.744,1.321-0.744,2.17
				c0,0.871,0.252,1.615,0.744,2.209C716.123,891.019,716.788,891.324,717.608,891.324z"/>
			<path fill="#FFFFFF" d="M730.55,891.16h-0.032c-0.347,0.518-0.779,0.92-1.279,1.206c-0.511,0.293-1.061,0.438-1.648,0.438
				c-1.28,0-2.289-0.449-3.025-1.346c-0.734-0.9-1.104-2.006-1.104-3.315c0-1.245,0.38-2.3,1.127-3.17
				c0.746-0.893,1.722-1.343,2.93-1.343c1.237,0,2.23,0.566,3,1.693h0.032v-8.801h1.66v15.982h-1.66V891.16z M727.845,891.324
				c0.87,0,1.548-0.295,2.039-0.902c0.504-0.607,0.757-1.355,0.757-2.227c0-0.854-0.253-1.59-0.757-2.192
				c-0.491-0.598-1.169-0.895-2.039-0.895c-0.823,0-1.487,0.298-1.987,0.917c-0.49,0.603-0.738,1.321-0.738,2.17
				c0,0.871,0.248,1.615,0.738,2.209C726.358,891.019,727.022,891.324,727.845,891.324z"/>
			<path fill="#FFFFFF" d="M736.959,891.73c0,0.296-0.103,0.544-0.305,0.754c-0.217,0.209-0.471,0.319-0.766,0.319
				c-0.296,0-0.546-0.11-0.747-0.319c-0.213-0.21-0.318-0.458-0.318-0.754c0-0.28,0.105-0.531,0.318-0.744
				c0.201-0.214,0.451-0.318,0.747-0.318c0.295,0,0.549,0.104,0.766,0.318C736.857,891.199,736.959,891.45,736.959,891.73z"/>
			<path fill="#FFFFFF" d="M746.017,886.334c-0.686-0.772-1.511-1.159-2.462-1.159c-0.801,0-1.488,0.304-2.048,0.902
				c-0.557,0.609-0.82,1.326-0.82,2.117c0,0.899,0.264,1.629,0.82,2.191c0.579,0.58,1.298,0.867,2.15,0.867
				c0.884,0,1.674-0.392,2.359-1.142v2.116c-0.712,0.378-1.502,0.575-2.374,0.575c-1.276,0-2.372-0.443-3.282-1.313
				c-0.893-0.854-1.336-1.927-1.336-3.217c0-1.325,0.443-2.439,1.336-3.318c0.901-0.882,2.025-1.325,3.374-1.325
				c0.889,0,1.646,0.192,2.282,0.566V886.334z"/>
			<path fill="#FFFFFF" d="M748.357,884.955c0.897-0.882,1.991-1.325,3.276-1.325c1.287,0,2.381,0.443,3.256,1.325
				c0.903,0.879,1.346,1.979,1.346,3.263c0,1.284-0.442,2.37-1.346,3.265c-0.875,0.878-1.969,1.321-3.256,1.321
				c-1.285,0-2.379-0.443-3.276-1.321c-0.884-0.895-1.328-1.98-1.328-3.265C747.029,886.934,747.473,885.833,748.357,884.955z
				 M748.688,888.217c0,0.793,0.292,1.5,0.866,2.108c0.557,0.601,1.261,0.891,2.079,0.891c0.809,0,1.508-0.29,2.08-0.891
				c0.579-0.608,0.866-1.315,0.866-2.108c0-0.812-0.287-1.523-0.866-2.119c-0.572-0.591-1.271-0.884-2.08-0.884
				c-0.818,0-1.522,0.293-2.079,0.884C748.98,886.694,748.688,887.406,748.688,888.217z"/>
			<path fill="#FFFFFF" d="M759.349,884.972h0.037c0.245-0.394,0.563-0.712,0.984-0.964c0.412-0.256,0.844-0.379,1.294-0.379
				c1.074,0,1.898,0.509,2.492,1.531c0.268-0.467,0.643-0.842,1.116-1.122c0.466-0.274,0.985-0.409,1.53-0.409
				c1.908,0,2.855,1.24,2.855,3.717v5.158h-1.653v-4.881c0-0.218-0.007-0.438-0.033-0.648c-0.013-0.223-0.053-0.43-0.097-0.626
				c-0.053-0.209-0.122-0.396-0.223-0.567c-0.1-0.164-0.237-0.325-0.402-0.459c-0.223-0.147-0.508-0.215-0.848-0.215
				c-0.349,0-0.637,0.067-0.882,0.215c-0.239,0.134-0.416,0.305-0.548,0.5c-0.132,0.205-0.234,0.465-0.301,0.77
				c-0.072,0.305-0.122,0.585-0.141,0.831c-0.021,0.241-0.028,0.525-0.028,0.85v4.231h-1.661v-4.566c0-0.295,0-0.534-0.012-0.733
				c-0.018-0.204-0.053-0.445-0.114-0.739c-0.059-0.318-0.136-0.55-0.236-0.703c-0.101-0.17-0.257-0.318-0.456-0.458
				c-0.219-0.131-0.461-0.196-0.757-0.196c-0.849,0-1.396,0.362-1.645,1.097c-0.109,0.353-0.18,0.668-0.217,0.98
				c-0.04,0.301-0.057,0.662-0.057,1.088v4.231h-1.658v-8.619h1.658V884.972z"/>
		</g>
		<g>
			<g>
				<path fill="#FFFFFF" d="M472.783,887.419c7.82,0,15.635,0,23.454,0c0.709,0,0.709-1.094,0-1.094c-7.818,0-15.633,0-23.454,0
					C472.076,886.326,472.076,887.419,472.783,887.419L472.783,887.419z"/>
			</g>
			<g>
				<path fill="#FFFFFF" d="M784.83,887.419c7.818,0,15.636,0,23.448,0c0.717,0,0.717-1.094,0-1.094c-7.813,0-15.63,0-23.448,0
					C784.12,886.326,784.12,887.419,784.83,887.419L784.83,887.419z"/>
			</g>
		</g>
	</g>
</g>
<g>
	<defs>
		<rect id="SVGID_2_" width="1281.07" height="849.505"/>
	</defs>
	<clipPath id="SVGID_3_">
		<use xlink:href="#SVGID_2_"  overflow="visible"/>
	</clipPath>
	<g clip-path="url(#SVGID_3_)">
		<g>
			<linearGradient id="SVGID_4_" gradientUnits="userSpaceOnUse" x1="478.9053" y1="663.9976" x2="628.356" y2="663.9976">
				<stop  offset="0" style="stop-color:#FFFFFF"/>
				<stop  offset="1" style="stop-color:#E6E7E8"/>
			</linearGradient>
			<polygon fill="url(#SVGID_4_)" points="553.63,738.722 478.905,663.998 553.63,589.272 628.356,663.998 			"/>
			<linearGradient id="SVGID_5_" gradientUnits="userSpaceOnUse" x1="609.7402" y1="720.1069" x2="505.9566" y2="616.3232">
				<stop  offset="0" style="stop-color:#FFFFFF;stop-opacity:0"/>
				<stop  offset="1" style="stop-color:#6D6E71"/>
			</linearGradient>
			<polygon opacity="0.3" fill="url(#SVGID_5_)" points="553.63,738.722 478.905,663.998 553.63,589.272 628.356,663.998 			"/>
		</g>
		<g>
			<linearGradient id="SVGID_6_" gradientUnits="userSpaceOnUse" x1="700.5522" y1="442.3511" x2="850.0024" y2="442.3511">
				<stop  offset="0" style="stop-color:#FFFFFF"/>
				<stop  offset="1" style="stop-color:#E6E7E8"/>
			</linearGradient>
			<polygon fill="url(#SVGID_6_)" points="775.277,517.077 700.552,442.351 775.277,367.625 850.002,442.351 			"/>
			<linearGradient id="SVGID_7_" gradientUnits="userSpaceOnUse" x1="824.4204" y1="491.4937" x2="740.0767" y2="407.15">
				<stop  offset="0" style="stop-color:#FFFFFF;stop-opacity:0"/>
				<stop  offset="1" style="stop-color:#6D6E71"/>
			</linearGradient>
			<polygon opacity="0.3" fill="url(#SVGID_7_)" points="775.277,517.077 700.552,442.351 775.277,367.625 850.002,442.351 			"/>
		</g>
		<g>
			
				<linearGradient id="SVGID_8_" gradientUnits="userSpaceOnUse" x1="699.5522" y1="291.999" x2="849.0015" y2="291.999" gradientTransform="matrix(0.9873 0.023 0.023 0.9873 2.2058 -12.3375)">
				<stop  offset="0" style="stop-color:#FFFFFF"/>
				<stop  offset="1" style="stop-color:#E6E7E8"/>
			</linearGradient>
			<polygon fill="url(#SVGID_8_)" points="775.041,367.49 699.552,292 771.61,219.94 847.099,295.43 			"/>
			
				<linearGradient id="SVGID_9_" gradientUnits="userSpaceOnUse" x1="823.4175" y1="341.1411" x2="739.0738" y2="256.7974" gradientTransform="matrix(0.9873 0.023 0.023 0.9873 2.2058 -12.3375)">
				<stop  offset="0" style="stop-color:#FFFFFF;stop-opacity:0"/>
				<stop  offset="1" style="stop-color:#6D6E71"/>
			</linearGradient>
			<polygon opacity="0.3" fill="url(#SVGID_9_)" points="775.041,367.49 699.552,292 771.61,219.94 847.099,295.43 			"/>
		</g>
		<g>
			<linearGradient id="SVGID_10_" gradientUnits="userSpaceOnUse" x1="922.1987" y1="663.9976" x2="1071.6479" y2="663.9976">
				<stop  offset="0" style="stop-color:#FFFFFF"/>
				<stop  offset="1" style="stop-color:#E6E7E8"/>
			</linearGradient>
			<polygon fill="url(#SVGID_10_)" points="996.923,738.722 922.199,663.998 996.923,589.272 1071.648,663.998 			"/>
			<linearGradient id="SVGID_11_" gradientUnits="userSpaceOnUse" x1="1051.7642" y1="718.8374" x2="963.4648" y2="630.538">
				<stop  offset="0" style="stop-color:#FFFFFF;stop-opacity:0"/>
				<stop  offset="1" style="stop-color:#6D6E71"/>
			</linearGradient>
			<polygon opacity="0.3" fill="url(#SVGID_11_)" points="996.923,738.722 922.199,663.998 996.923,589.272 1071.648,663.998 			"/>
		</g>
		<g>
			<linearGradient id="SVGID_12_" gradientUnits="userSpaceOnUse" x1="922.1987" y1="220.7046" x2="1071.6479" y2="220.7046">
				<stop  offset="0" style="stop-color:#FFFFFF"/>
				<stop  offset="1" style="stop-color:#E6E7E8"/>
			</linearGradient>
			<polygon fill="url(#SVGID_12_)" points="996.923,295.43 922.199,220.705 996.923,145.979 1071.648,220.705 			"/>
			<linearGradient id="SVGID_13_" gradientUnits="userSpaceOnUse" x1="1046.2437" y1="272.8428" x2="957.584" y2="179.1168">
				<stop  offset="0" style="stop-color:#FFFFFF;stop-opacity:0"/>
				<stop  offset="1" style="stop-color:#6D6E71"/>
			</linearGradient>
			<polygon opacity="0.3" fill="url(#SVGID_13_)" points="996.923,295.43 922.199,220.705 996.923,145.979 1071.648,220.705 			"/>
		</g>
		<g>
			<linearGradient id="SVGID_14_" gradientUnits="userSpaceOnUse" x1="994.3921" y1="441.9272" x2="1143.8433" y2="441.9272">
				<stop  offset="0" style="stop-color:#FFFFFF"/>
				<stop  offset="1" style="stop-color:#E6E7E8"/>
			</linearGradient>
			<polygon fill="url(#SVGID_14_)" points="1069.119,516.653 994.392,441.928 1069.119,367.203 1143.843,441.928 			"/>
			<linearGradient id="SVGID_15_" gradientUnits="userSpaceOnUse" x1="1122.6938" y1="495.5034" x2="1027.6934" y2="400.5029">
				<stop  offset="0" style="stop-color:#FFFFFF;stop-opacity:0"/>
				<stop  offset="1" style="stop-color:#6D6E71"/>
			</linearGradient>
			<polygon opacity="0.3" fill="url(#SVGID_15_)" points="1069.119,516.653 994.392,441.928 1069.119,367.203 1143.843,441.928 			
				"/>
		</g>
		<g>
			
				<linearGradient id="SVGID_16_" gradientUnits="userSpaceOnUse" x1="845.4937" y1="890.4292" x2="994.9438" y2="890.4292" gradientTransform="matrix(0.9748 0.0162 0.0162 0.9748 11.9452 3.3879)">
				<stop  offset="0" style="stop-color:#FFFFFF"/>
				<stop  offset="1" style="stop-color:#E6E7E8"/>
			</linearGradient>
			<polygon fill="url(#SVGID_16_)" points="924.618,959.136 850.564,885.083 922.199,813.449 996.251,887.503 			"/>
			<linearGradient id="SVGID_17_" gradientUnits="userSpaceOnUse" x1="996.3188" y1="959.2026" x2="890.9202" y2="853.804">
				<stop  offset="0" style="stop-color:#FFFFFF;stop-opacity:0"/>
				<stop  offset="1" style="stop-color:#6D6E71"/>
			</linearGradient>
			<polygon opacity="0.3" fill="url(#SVGID_17_)" points="924.618,959.136 850.564,885.083 922.199,813.449 996.251,887.503 			"/>
		</g>
		<g>
			
				<linearGradient id="SVGID_18_" gradientUnits="userSpaceOnUse" x1="695.4692" y1="740.9556" x2="844.9204" y2="740.9556" gradientTransform="matrix(0.9782 0.0218 0.0218 0.9782 4.4944 -4.4944)">
				<stop  offset="0" style="stop-color:#FFFFFF"/>
				<stop  offset="1" style="stop-color:#E6E7E8"/>
			</linearGradient>
			<polygon fill="url(#SVGID_18_)" points="775.679,810.198 700.954,735.474 772.428,663.998 847.154,738.724 			"/>
			<linearGradient id="SVGID_19_" gradientUnits="userSpaceOnUse" x1="842.9868" y1="806.0308" x2="742.8964" y2="705.9404">
				<stop  offset="0" style="stop-color:#FFFFFF;stop-opacity:0"/>
				<stop  offset="1" style="stop-color:#6D6E71"/>
			</linearGradient>
			<polygon opacity="0.3" fill="url(#SVGID_19_)" points="775.679,810.198 700.954,735.474 772.428,663.998 847.154,738.724 			"/>
		</g>
		<g>
			<linearGradient id="SVGID_20_" gradientUnits="userSpaceOnUse" x1="1145.1099" y1="294.1655" x2="1294.5601" y2="294.1655">
				<stop  offset="0" style="stop-color:#FFFFFF"/>
				<stop  offset="1" style="stop-color:#E6E7E8"/>
			</linearGradient>
			<polygon fill="url(#SVGID_20_)" points="1219.835,368.891 1145.11,294.166 1219.835,219.44 1294.56,294.166 			"/>
			<linearGradient id="SVGID_21_" gradientUnits="userSpaceOnUse" x1="1294.3081" y1="368.6392" x2="1179.8691" y2="254.2003">
				<stop  offset="0" style="stop-color:#FFFFFF;stop-opacity:0"/>
				<stop  offset="1" style="stop-color:#6D6E71"/>
			</linearGradient>
			<polygon opacity="0.3" fill="url(#SVGID_21_)" points="1219.835,368.891 1145.11,294.166 1219.835,219.44 1294.56,294.166 			"/>
		</g>
		<g>
			<linearGradient id="SVGID_22_" gradientUnits="userSpaceOnUse" x1="1071.6479" y1="71.2534" x2="1221.0991" y2="71.2534">
				<stop  offset="0" style="stop-color:#FFFFFF"/>
				<stop  offset="1" style="stop-color:#E6E7E8"/>
			</linearGradient>
			<polygon fill="url(#SVGID_22_)" points="1146.375,145.979 1071.648,71.254 1146.375,-3.472 1221.099,71.254 			"/>
			<linearGradient id="SVGID_23_" gradientUnits="userSpaceOnUse" x1="1205.6489" y1="130.5288" x2="1106.0405" y2="30.9204">
				<stop  offset="0" style="stop-color:#FFFFFF;stop-opacity:0"/>
				<stop  offset="1" style="stop-color:#6D6E71"/>
			</linearGradient>
			<polygon opacity="0.3" fill="url(#SVGID_23_)" points="1146.375,145.979 1071.648,71.254 1146.375,-3.472 1221.099,71.254 			"/>
		</g>
		<g>
			<g>
				
					<rect x="-215.368" y="620.975" transform="matrix(0.7071 0.7071 -0.7071 0.7071 653.46 -334.3757)" fill="#FFFFFF" width="1891.451" height="1.266"/>
			</g>
			<g>
				
					<rect x="-140.433" y="546.039" transform="matrix(0.7071 0.7071 -0.7071 0.7071 622.4207 -409.3112)" fill="#FFFFFF" width="1891.451" height="1.266"/>
			</g>
			<g>
				
					<rect x="-65.706" y="471.313" transform="matrix(0.7071 0.7071 -0.7071 0.7071 591.4681 -484.0376)" fill="#FFFFFF" width="1891.45" height="1.266"/>
			</g>
			<g>
				
					<rect x="5.854" y="399.753" transform="matrix(0.7071 0.7071 -0.7071 0.7071 561.8274 -555.5978)" fill="#FFFFFF" width="1891.45" height="1.266"/>
			</g>
			<g>
				
					<rect x="81.214" y="324.393" transform="matrix(0.7071 0.7071 -0.7071 0.7071 530.6121 -630.9581)" fill="#FFFFFF" width="1891.451" height="1.266"/>
			</g>
			<g>
				
					<rect x="155.307" y="250.3" transform="matrix(0.7071 0.7071 -0.7071 0.7071 499.9219 -705.0515)" fill="#FFFFFF" width="1891.451" height="1.266"/>
			</g>
			<g>
				
					<rect x="230.456" y="175.151" transform="matrix(0.7071 0.7071 -0.7071 0.7071 468.7947 -780.2005)" fill="#FFFFFF" width="1891.451" height="1.266"/>
			</g>
			<g>
				
					<rect x="379.064" y="175.151" transform="matrix(0.7071 0.7071 -0.7071 0.7071 512.3207 -885.2817)" fill="#FFFFFF" width="1891.451" height="1.266"/>
			</g>
			<g>
				
					<rect x="-287.449" y="693.056" transform="matrix(0.7071 0.7071 -0.7071 0.7071 683.3177 -262.295)" fill="#FFFFFF" width="1891.452" height="1.266"/>
			</g>
			<g>
				
					<rect x="-358.491" y="772.54" transform="matrix(0.7071 0.7071 -0.7071 0.7071 718.7136 -188.7802)" fill="#FFFFFF" width="1891.451" height="1.266"/>
			</g>
			<g>
				
					<rect x="-433.008" y="847.9" transform="matrix(0.7071 0.7071 -0.7071 0.7071 750.1759 -114.0166)" fill="#FFFFFF" width="1891.451" height="1.267"/>
			</g>
			<g>
				
					<rect x="-514.473" y="929.365" transform="matrix(0.7071 0.7071 -0.7071 0.7071 783.9197 -32.5515)" fill="#FFFFFF" width="1891.451" height="1.266"/>
			</g>
			<g>
				
					<rect x="-595.938" y="1010.831" transform="matrix(0.7071 0.7071 -0.7071 0.7071 817.6639 48.9136)" fill="#FFFFFF" width="1891.451" height="1.266"/>
			</g>
			<g>
				
					<rect x="-677.402" y="1092.296" transform="matrix(0.7071 0.7071 -0.7071 0.7071 851.4081 130.3787)" fill="#FFFFFF" width="1891.451" height="1.266"/>
			</g>
		</g>
		<g>
			<g>
				
					<rect x="841.584" y="-351.621" transform="matrix(0.7077 0.7065 -0.7065 0.7077 665.9441 -421.3844)" fill="#FFFFFF" width="1.266" height="1891.451"/>
			</g>
			<g>
				
					<rect x="916.52" y="-276.685" transform="matrix(0.7069 0.7073 -0.7073 0.7069 742.0164 -452.616)" fill="#FFFFFF" width="1.267" height="1891.451"/>
			</g>
			<g>
				
					<rect x="991.247" y="-201.959" transform="matrix(0.7071 0.7071 -0.7071 0.7071 816.4373 -483.5208)" fill="#FFFFFF" width="1.266" height="1891.451"/>
			</g>
			<g>
				
					<rect x="1065.906" y="-127.616" transform="matrix(0.7071 0.7071 -0.7071 0.7071 890.873 -514.5383)" fill="#FFFFFF" width="1.266" height="1891.451"/>
			</g>
			<g>
				
					<rect x="1138.166" y="-55.038" transform="matrix(0.7067 0.7075 -0.7075 0.7067 964.1395 -544.4724)" fill="#FFFFFF" width="1.267" height="1891.45"/>
			</g>
			<g>
				
					<rect x="1212.259" y="19.056" transform="matrix(0.7067 0.7075 -0.7075 0.7067 1038.2902 -575.1625)" fill="#FFFFFF" width="1.267" height="1891.45"/>
			</g>
			<g>
				
					<rect x="1287.408" y="94.205" transform="matrix(0.7075 0.7067 -0.7067 0.7075 1111.7034 -606.0985)" fill="#FFFFFF" width="1.267" height="1891.451"/>
			</g>
			<g>
				
					<rect x="1287.408" y="242.811" transform="matrix(0.7075 0.7067 -0.7067 0.7075 1216.7267 -562.6299)" fill="#FFFFFF" width="1.267" height="1891.451"/>
			</g>
			<g>
				
					<rect x="769.502" y="-423.701" transform="matrix(0.7067 0.7075 -0.7075 0.7067 595.1922 -391.766)" fill="#FFFFFF" width="1.267" height="1891.45"/>
			</g>
			<g>
				
					<rect x="690.019" y="-494.743" transform="matrix(0.7071 0.7071 -0.7071 0.7071 521.1798 -356.275)" fill="#FFFFFF" width="1.266" height="1891.451"/>
			</g>
			<g>
				
					<rect x="614.659" y="-569.26" transform="matrix(0.7075 0.7067 -0.7067 0.7075 446.0338 -324.7208)" fill="#FFFFFF" width="1.266" height="1891.452"/>
			</g>
			<g>
				
					<rect x="533.194" y="-650.725" transform="matrix(0.7069 0.7073 -0.7073 0.7069 365.1112 -291.1151)" fill="#FFFFFF" width="1.266" height="1891.451"/>
			</g>
			<g>
				
					<rect x="451.729" y="-732.19" transform="matrix(0.7069 0.7073 -0.7073 0.7069 283.6149 -257.3713)" fill="#FFFFFF" width="1.266" height="1891.451"/>
			</g>
			<g>
				
					<rect x="370.264" y="-813.655" transform="matrix(0.7071 0.7071 -0.7071 0.7071 202.0217 -223.5814)" fill="#FFFFFF" width="1.266" height="1891.452"/>
			</g>
		</g>
	</g>
</g>
</svg>
